<svg width="1592" height="236" viewBox="0 0 1592 236" fill="none" xmlns="http://www.w3.org/2000/svg">
<path d="M1532.04 232C1501.96 232 1489.8 219.84 1489.8 192.32V0H1546.44V169.92C1546.44 178.24 1549.32 181.76 1557.96 181.76H1591.24V232H1532.04Z" fill="white"/>
<path d="M1481.37 0V232H1424.09V218.56C1424.09 213.12 1425.37 208.64 1432.73 203.2L1445.21 193.92L1433.37 178.88L1389.53 213.12C1369.37 228.8 1357.85 234.88 1343.45 234.88C1321.37 234.88 1306.01 220.8 1306.01 194.56V142.08C1306.01 93.76 1332.89 68.16 1388.89 68.16H1392.73C1406.81 68.16 1420.25 71.36 1424.73 72.96V0H1481.37ZM1362.65 169.28C1362.65 176.32 1366.49 180.48 1372.57 180.48C1378.65 180.48 1383.45 177.28 1394.65 168.32L1424.73 144.32V122.88C1420.89 120.96 1411.93 117.76 1395.93 117.76H1390.49C1370.65 117.76 1362.65 126.4 1362.65 143.68V169.28Z" fill="white"/>
<path d="M1205.77 235.201C1144.97 235.201 1120.65 208.961 1120.65 159.681V144.321C1120.65 95.0408 1144.97 68.8008 1205.77 68.8008H1216.01C1276.81 68.8008 1301.13 95.0408 1301.13 144.321V159.681C1301.13 208.961 1276.81 235.201 1216.01 235.201H1205.77ZM1177.29 158.081C1177.29 176.321 1185.93 184.961 1205.77 184.961H1216.01C1235.85 184.961 1244.49 176.321 1244.49 158.081V145.921C1244.49 127.681 1235.85 119.041 1216.01 119.041H1205.77C1185.93 119.041 1177.29 127.681 1177.29 145.921V158.081Z" fill="white"/>
<path d="M939.448 232V0H996.087V85.44C996.087 90.88 995.447 95.36 988.087 100.8L975.607 110.08L987.448 125.12L1031.29 90.88C1051.45 75.2 1062.97 69.12 1077.37 69.12C1099.45 69.12 1114.81 83.2 1114.81 109.44V232H1058.17V134.72C1058.17 127.68 1054.33 123.52 1048.25 123.52C1042.17 123.52 1037.37 126.72 1026.17 135.68L996.087 159.68V232H939.448Z" fill="white"/>
<path d="M837.323 235.84C775.883 235.84 751.562 209.6 751.562 161.92V143.68C751.562 94.4002 775.883 68.1602 837.323 68.1602H848.843C909.323 68.1602 933.642 94.4002 933.642 143.68V164.16H808.523C808.843 182.4 816.523 189.76 837.323 189.76H850.122C870.923 189.76 876.363 184 877.323 176H933.642V187.84C925.322 216.96 902.283 235.84 848.843 235.84H837.323ZM809.802 134.4H876.682C875.403 117.76 869.322 112.32 850.122 112.32H837.323C817.803 112.32 811.722 117.76 809.802 134.4Z" fill="white"/>
<path d="M655.375 235.201C598.095 235.201 578.255 220.481 571.855 196.481V184.641H627.535C628.815 194.241 631.375 196.801 653.135 196.801H667.535C688.975 196.801 691.855 193.281 691.855 187.521C691.855 182.721 689.295 180.161 682.895 179.201L620.495 170.241C587.215 165.441 572.175 150.721 572.175 121.281C572.175 89.9208 591.695 68.8008 654.095 68.8008H663.375C717.135 68.8008 737.295 84.1608 743.695 107.201V119.041H688.335C687.695 110.721 684.495 106.881 663.695 106.881H651.855C631.695 106.881 628.815 110.081 628.815 115.201C628.815 120.001 631.375 122.561 638.095 123.521L702.415 132.801C733.455 137.281 748.495 151.361 748.495 178.561C748.495 213.441 728.335 235.201 665.295 235.201H655.375Z" fill="white"/>
<path d="M566.333 72V232H509.053V218.56C509.053 213.12 510.333 208.64 517.693 203.2L530.173 193.92L518.333 178.88L474.493 213.12C454.333 228.8 442.813 234.88 428.413 234.88C406.333 234.88 390.973 220.8 390.973 194.56V72H447.613V169.28C447.613 176.32 451.453 180.48 457.533 180.48C463.613 180.48 468.413 177.28 479.613 168.32L509.693 144.32V72H566.333Z" fill="white"/>
<path d="M289.77 235.201C228.97 235.201 204.65 208.961 204.65 159.681V144.321C204.65 95.0408 228.97 68.8008 289.77 68.8008H300.01C360.81 68.8008 385.13 95.0408 385.13 144.321V159.681C385.13 208.961 360.81 235.201 300.01 235.201H289.77ZM261.29 158.081C261.29 176.321 269.93 184.961 289.77 184.961H300.01C319.85 184.961 328.49 176.321 328.49 158.081V145.921C328.49 127.681 319.85 119.041 300.01 119.041H289.77C269.93 119.041 261.29 127.681 261.29 145.921V158.081Z" fill="white"/>
<path d="M0.32251 232V0H57.9225V86.72H141.443V0H199.043V232H141.443V138.88H57.9225V232H0.32251Z" fill="white"/>
</svg>
